# xmcd
# 
# Track frame offsets:
#     150
#     26568
#     48955
#     68863
#     90528
#     112253
#     129138
#     146413
#     168650
#     181943
# 
# Disc length: 2766
# 
# Revision: 8
# Processed by: cddbd v1.5.2PL0 Copyright (c) Steve Scherf et al.
# Submitted via: fre:ac v1.0.31
# 
DISCID=840acc0a
DTITLE=The Church - Starfish
DYEAR=1988
DGENRE=New Wave
TTITLE0=Destination
TTITLE1=Under The Milky Way
TTITLE2=Blood Money
TTITLE3=Lost
TTITLE4=North, South, East And West
TTITLE5=Spark
TTITLE6=Antenna
TTITLE7=Reptile
TTITLE8=A New Season
TTITLE9=Hotel Womb
EXTD=YEAR 1988 \nkit 29 Jan 05
EXTT0=
EXTT1=
EXTT2=
EXTT3=
EXTT4=
EXTT5=
EXTT6=
EXTT7=
EXTT8=
EXTT9=
PLAYORDER=
